<?xml version="1.0" encoding="UTF-8" standalone="no"?>
<svg
   version="1.2"
   class="svggear"
   x="0px"
   y="0px"
   width="350"
   height="350"
   viewBox="-175 -175 350 350"
   overflow="scroll"
   xml:space="preserve"
   id="svg3047"
   xmlns="http://www.w3.org/2000/svg"
   xmlns:svg="http://www.w3.org/2000/svg"><defs
     id="defs3051" /><path
     style="display:inline;fill:#7b1fa2;fill-opacity:1;stroke:#000000;stroke-width:2.5;stroke-dasharray:none;stroke-opacity:1"
     id="path4237"
     d="M 249.42987,223.09009 191.78073,261.6973 123.71721,248.23262 85.11,190.58348 98.574678,122.51996 156.22382,83.91275 l 68.06352,13.464678 38.60721,57.649142 z"
     transform="matrix(1.6947884,-0.32624059,0.32624059,1.6947884,-351.27326,-236.1012)" /><path
     style="fill:#7b1fa2;fill-opacity:1;stroke:#000000;stroke-width:3.63872;stroke-dasharray:none;stroke-opacity:1"
     d="m 101.70492,-20.260689 37.94083,-7.558503 0.23694,-0.05797 0.49469,-0.143031 0.74498,-0.250545 0.98633,-0.38 1.21735,-0.530809 1.4366,-0.702282 1.64273,-0.893669 1.83447,-1.104129 2.01054,-1.332754 2.16969,-1.578549 2.31085,-1.840472 2.43285,-2.117384 2.53473,-2.40811 2.61547,-2.711393 2.67426,-3.025938 2.71024,-3.350389 2.72265,-3.683328 1.35845,-1.96878 0.67717,-1.016507 0.16901,-0.257486 0.0422,-0.06458 0.0102,-0.01613 0.006,-0.0082 0.003,-0.0074 -10.50946,-25.186957 -0.007,-0.0028 -0.009,-0.002 -0.0189,-0.0038 -0.0757,-0.0154 -0.3019,-0.061 -1.19884,-0.233731 -2.35492,-0.419344 -4.53317,-0.655778 -4.28781,-0.430407 -4.03188,-0.227748 -3.76697,-0.04826 -3.4946,0.107677 -3.21631,0.239772 -2.93365,0.347837 -2.64821,0.431753 -2.36153,0.491521 -2.0752,0.527202 -1.79074,0.538977 -1.5097,0.527082 -1.23359,0.491865 -0.96391,0.433755 -0.70212,0.353269 -0.44964,0.250999 -0.20787,0.127632 -32.060929,21.650275 -28.353011,-28.206207 21.483549,-32.172887 0.126555,-0.20853 0.248663,-0.45094 0.349618,-0.70394 0.428745,-0.96615 0.485455,-1.23613 0.519237,-1.51242 0.529673,-1.79351 0.516431,-2.0779 0.479258,-2.36406 0.418006,-2.65041 0.332601,-2.93542 0.223073,-3.21751 0.08953,-3.49511 -0.06781,-3.76668 -0.248678,-4.03064 -0.452661,-4.2855 -0.679299,-4.52972 -0.43157,-2.35271 -0.23995,-1.1976 -0.0626,-0.30158 -0.01581,-0.0755 -0.0039,-0.0189 -0.002,-0.009 -0.0028,-0.007 -25.241176,-10.37855 -0.0076,0.003 -0.0081,0.004 -0.01611,0.0102 -0.06438,0.0425 -0.256617,0.17029 -1.012977,0.68244 -1.961701,1.36865 -3.669144,2.74175 -3.336273,2.72759 -3.012017,2.68992 -2.69778,2.62953 -2.394918,2.54719 -2.104726,2.44381 -1.82845,2.32037 -1.567267,2.17786 -1.322299,2.01743 -1.094592,1.84017 -0.885128,1.64736 -0.694817,1.44022 -0.524478,1.22008 -0.374878,0.9883 -0.246673,0.74627 -0.140455,0.49543 -0.05675,0.23723 -7.360759,37.98079 -39.993406,0.1038 -7.558503,-37.94083 -0.05797,-0.23694 -0.143031,-0.49469 -0.250545,-0.74497 -0.380001,-0.98634 -0.530808,-1.21735 -0.702282,-1.4366 -0.893669,-1.64273 -1.10413,-1.83447 -1.332753,-2.01054 -1.578549,-2.16968 -1.840472,-2.31086 -2.117385,-2.43285 -2.408109,-2.53473 -2.711393,-2.61547 -3.025939,-2.67426 -3.350389,-2.71023 -3.683327,-2.72266 -1.968781,-1.35845 -1.016506,-0.67717 -0.257486,-0.16901 -0.06458,-0.0422 -0.01613,-0.0102 -0.0082,-0.006 -0.0074,-0.003 -25.186956,10.50946 -0.0028,0.007 -0.002,0.009 -0.0038,0.0189 -0.0154,0.0757 -0.061,0.3019 -0.233732,1.19884 -0.419343,2.35492 -0.655778,4.53317 -0.430407,4.28781 -0.227748,4.03188 -0.04826,3.76697 0.107677,3.4946 0.239772,3.21631 0.347837,2.93365 0.431753,2.64821 0.49152,2.36154 0.527203,2.07519 0.538976,1.79074 0.527083,1.5097 0.491865,1.23359 0.433754,0.96391 0.353269,0.70212 0.250999,0.44964 0.127632,0.20787 21.650275,32.060932 -28.206207,28.353011 -32.172881,-21.483549 -0.20853,-0.126555 -0.45094,-0.248663 -0.70394,-0.349619 -0.96615,-0.428745 -1.23613,-0.485455 -1.51241,-0.519237 -1.79352,-0.529673 -2.0779,-0.516431 -2.36406,-0.479257 -2.65041,-0.418006 -2.93542,-0.332602 -3.21751,-0.223072 -3.49511,-0.08953 -3.76668,0.06781 -4.03064,0.248678 -4.2855,0.452661 -4.52971,0.679299 -2.35271,0.43157 -1.19761,0.23995 -0.30158,0.0626 -0.0755,0.01581 -0.0189,0.0039 -0.009,0.002 -0.007,0.0028 -10.37855,25.241177 0.003,0.0076 0.004,0.0082 0.0102,0.01611 0.0425,0.06438 0.1703,0.256618 0.68244,1.012976 1.36866,1.961701 2.74174,3.669144 2.72758,3.336274 2.68992,3.012017 2.62953,2.697779 2.54719,2.394919 2.44381,2.104726 2.32037,1.828449 2.17787,1.567268 2.01742,1.322299 1.84017,1.094592 1.64736,0.885128 1.44022,0.694817 1.22008,0.524478 0.98831,0.374877 0.74627,0.246674 0.49543,0.140454 0.23724,0.05675 37.97955,7.361444 0.10505,39.992721 -37.94084,7.558503 -0.23693,0.05797 -0.4947,0.143031 -0.74497,0.250545 -0.98634,0.38 -1.21735,0.530809 -1.4366,0.702282 -1.64273,0.893669 -1.83447,1.104129 -2.01054,1.332754 -2.16968,1.578549 -2.31086,1.840472 -2.43285,2.117384 -2.53473,2.40811 -2.61547,2.711393 -2.67426,3.025938 -2.71023,3.350389 -2.72266,3.683328 -1.35845,1.96878 -0.67716,1.016507 -0.16902,0.257486 -0.0422,0.06458 -0.0102,0.01613 -0.006,0.0082 -0.003,0.0074 10.50946,25.186957 0.007,0.0028 0.009,0.002 0.0189,0.0038 0.0757,0.0154 0.3019,0.061 1.19884,0.233731 2.35492,0.419344 4.53317,0.655778 4.28781,0.430407 4.03188,0.227748 3.76697,0.04826 3.4946,-0.107677 3.21631,-0.239772 2.93365,-0.347837 2.64821,-0.431753 2.36154,-0.491521 2.07519,-0.527202 1.79074,-0.538977 1.5097,-0.527082 1.23359,-0.491865 0.96391,-0.433755 0.70212,-0.353269 0.44964,-0.250999 0.20787,-0.127632 32.060925,-21.650275 28.353011,28.206207 -21.483549,32.172887 -0.126555,0.20853 -0.248663,0.45094 -0.349618,0.70394 -0.428745,0.96615 -0.485455,1.23613 -0.519237,1.51241 -0.529673,1.79352 -0.516431,2.0779 -0.479258,2.36406 -0.418006,2.65041 -0.332601,2.93542 -0.223073,3.21751 -0.08953,3.49511 0.06781,3.76668 0.248678,4.03064 0.452661,4.2855 0.679299,4.52971 0.43157,2.35271 0.23995,1.19761 0.0626,0.30158 0.01581,0.0755 0.0039,0.0189 0.002,0.009 0.0028,0.007 25.241176,10.37855 0.0076,-0.003 0.0082,-0.004 0.01611,-0.0102 0.06438,-0.0425 0.256617,-0.17029 1.012977,-0.68244 1.961701,-1.36865 3.669144,-2.74175 3.336273,-2.72759 3.012017,-2.68992 2.69778,-2.62953 2.394918,-2.54719 2.104726,-2.44381 1.82845,-2.32037 1.567267,-2.17786 1.322299,-2.01743 1.094592,-1.84017 0.885128,-1.64736 0.694817,-1.44022 0.524478,-1.22008 0.374878,-0.9883 0.246673,-0.74627 0.140455,-0.49543 0.05675,-0.23723 7.360759,-37.98079 39.993406,-0.10381 7.558503,37.94084 0.05797,0.23693 0.143031,0.4947 0.250545,0.74497 0.380001,0.98634 0.530808,1.21735 0.702282,1.4366 0.893669,1.64273 1.10413,1.83447 1.332753,2.01054 1.578549,2.16968 1.840472,2.31085 2.117385,2.43285 2.408109,2.53474 2.711393,2.61547 3.025939,2.67426 3.350389,2.71023 3.683327,2.72266 1.968781,1.35845 1.016506,0.67716 0.257486,0.16902 0.06458,0.0422 0.01613,0.0102 0.0082,0.006 0.0074,0.003 25.186956,-10.50946 0.0028,-0.007 0.002,-0.009 0.0038,-0.0189 0.0154,-0.0757 0.061,-0.3019 0.233732,-1.19884 0.419343,-2.35493 0.655778,-4.53316 0.430407,-4.28781 0.227748,-4.03188 0.04826,-3.76698 -0.107677,-3.49459 -0.239772,-3.21631 -0.347837,-2.93366 -0.431753,-2.6482 -0.49152,-2.36154 -0.527203,-2.07519 -0.538976,-1.79074 -0.527083,-1.5097 -0.491865,-1.23359 -0.433754,-0.96391 -0.353269,-0.70212 -0.250999,-0.44964 -0.127632,-0.20787 -21.650275,-32.060932 28.206207,-28.353011 32.172885,21.483549 0.20853,0.126555 0.45094,0.248663 0.70394,0.349619 0.96615,0.428745 1.23613,0.485455 1.51242,0.519237 1.79351,0.529673 2.0779,0.516431 2.36406,0.479257 2.65041,0.418006 2.93542,0.332602 3.21751,0.223072 3.49511,0.08953 3.76668,-0.06781 4.03064,-0.248678 4.2855,-0.452661 4.52971,-0.679299 2.35272,-0.43157 1.1976,-0.23995 0.30158,-0.0626 0.0755,-0.01581 0.0189,-0.0039 0.009,-0.002 0.007,-0.0028 10.37855,-25.241177 -0.003,-0.0076 -0.004,-0.0082 -0.0102,-0.01611 -0.0425,-0.06438 -0.17029,-0.256618 -0.68244,-1.012976 -1.36865,-1.961701 -2.74175,-3.669144 -2.72759,-3.336274 -2.68992,-3.012017 -2.62953,-2.697779 -2.54719,-2.394919 -2.44381,-2.104726 -2.32037,-1.828449 -2.17786,-1.567268 -2.01743,-1.322299 -1.84017,-1.094592 -1.64736,-0.885128 -1.44022,-0.694817 -1.22008,-0.524478 -0.9883,-0.374877 -0.74627,-0.246674 -0.49543,-0.140454 -0.23723,-0.05675 -37.97956,-7.361444 z"
     id="gearpoly0" /><path
     id="gearpoly0-2"
     style="display:inline;fill:#7b1fa2;fill-opacity:1;stroke:#000000;stroke-width:2.83972;stroke-dasharray:none;stroke-opacity:1"
     d="m 134.69489,-44.916939 -8.23549,-19.643247 -0.005,-0.0013 -0.007,-0.0029 -0.0161,-0.0012 -0.0592,-0.01295 -0.23543,-0.04547 -0.93474,-0.181012 -1.83942,-0.325069 -3.53903,-0.506254 -3.34526,-0.330218 -3.14846,-0.172898 -2.93905,-0.03169 -2.72706,0.08864 -2.50985,0.189818 -2.28875,0.276635 -2.06549,0.340386 -1.843553,0.386304 -1.618586,0.413516 -1.397115,0.423316 -1.177408,0.413106 -0.961193,0.385498 -0.752827,0.341365 -0.546654,0.275039 -0.349631,0.196983 -0.163067,0.100662 -22.98976,15.578922 a 83.605806,83.605806 0 0 1 12.968485,30.291442 l 26.979239,-5.42151 0.18531,-0.04629 0.38495,-0.111301 0.58066,-0.195887 0.7707,-0.297435 0.94812,-0.416811 1.12072,-0.548803 1.28026,-0.700791 1.43066,-0.864526 1.5671,-1.041295 1.69093,-1.235892 1.80168,-1.439179 1.89635,-1.655071 1.97489,-1.883565 2.03863,-2.118137 2.08147,-2.366609 2.1104,-2.616812 2.12104,-2.879182 1.05759,-1.538568 0.52617,-0.793648 0.13165,-0.200697 0.033,-0.04963 0.009,-0.01295 0.003,-0.0074 z m 0.37956,88.687249 -0.003,-0.0061 -0.003,-0.0061 -0.007,-0.01441 -0.0349,-0.04957 -0.1329,-0.199583 -0.53414,-0.788763 -1.06998,-1.529663 -2.14542,-2.861357 -2.13127,-2.599446 -2.10318,-2.347121 -2.05598,-2.100902 -1.99093,-1.867321 -1.91111,-1.638971 -1.81344,-1.423258 -1.70014,-1.219739 -1.57596,-1.029718 -1.43831,-0.851459 -1.28588,-0.689745 -1.12694,-0.540654 -0.95061,-0.406374 -0.77385,-0.292542 -0.58146,-0.190906 -0.38646,-0.110166 -0.18495,-0.04203 L 82.083432,15.76892 A 83.605806,83.605806 0 0 1 69.572958,46.290516 l 22.944871,15.266292 0.164552,0.09819 0.351294,0.194164 0.5502,0.271862 0.754748,0.332588 0.965373,0.378516 1.180764,0.403116 1.399621,0.411183 1.623682,0.400104 1.844247,0.371618 2.06957,0.321815 2.29141,0.254606 2.51236,0.171739 2.72633,0.06538 2.93897,-0.05882 3.14594,-0.199973 3.34289,-0.357217 3.53548,-0.536219 1.83446,-0.341482 0.93526,-0.187943 0.23448,-0.04934 0.0587,-0.01179 0.0152,-0.0031 0.009,-0.0017 0.004,-0.0031 z m -71.524324,-170.45192 -0.04934,-0.23447 -0.01179,-0.0587 -0.0031,-0.0152 -0.0013,-0.007 -0.0039,-0.008 -19.712541,-8.06593 -0.0038,0.003 -0.0083,0.004 -0.01208,0.007 -0.04957,0.0349 -0.199584,0.1329 -0.790936,0.53457 -1.527489,1.06954 -2.861356,2.14543 -2.599447,2.13126 -2.34712,2.10319 -2.100903,2.05598 -1.867321,1.99093 -1.638972,1.9111 -1.423694,1.81127 -1.221476,1.70275 -1.027543,1.57553 -0.85146,1.43831 -0.689744,1.28588 -0.541093,1.12477 -0.405936,0.95277 -0.292543,0.77386 -0.190906,0.58145 -0.110166,0.38646 -0.0442,0.18539 -5.231394,27.241766 a 83.605806,83.605806 0 0 1 30.406764,12.547128 l 15.419234,-23.174737 0.09862,-0.162383 0.193727,-0.353468 0.271863,-0.550201 0.333024,-0.752574 0.378079,-0.967547 0.403117,-1.180764 0.411183,-1.39962 0.40054,-1.621508 0.369006,-1.845982 0.323989,-2.07001 0.254607,-2.29141 0.170002,-2.50975 0.06494,-2.7285 -0.05663,-2.93941 -0.199972,-3.14594 -0.357218,-3.34289 -0.536218,-3.53548 -0.341483,-1.83446 z M 65.281385,100.79898 64.892911,98.955864 64.479396,97.337278 64.056079,95.940161 63.642973,94.762754 63.257477,93.80156 62.918725,93.050471 62.641073,92.502081 62.44409,92.15245 62.345614,91.988945 46.886943,69.180942 a 83.605806,83.605806 0 0 1 -30.414051,12.78722 l 5.421509,26.979238 0.04628,0.18531 0.111302,0.38495 0.198498,0.5824 0.296998,0.76853 0.414637,0.94855 0.550977,1.12029 0.698617,1.28069 0.864526,1.43066 1.043469,1.56666 1.233718,1.69137 1.439178,1.80169 1.657247,1.8959 1.881388,1.97533 2.120313,2.0382 2.364435,2.08191 2.618986,2.10996 2.877007,2.12147 1.538567,1.05759 0.79365,0.52617 0.200695,0.13165 0.0518,0.0326 0.01295,0.009 0.0052,0.003 0.0052,0.004 19.643246,-8.23549 0.0035,-0.005 8.21e-4,-0.007 0.0012,-0.0161 0.01295,-0.0592 0.04764,-0.23587 0.181012,-0.93473 0.322893,-1.83899 0.506255,-3.53903 0.330217,-3.34526 0.172899,-3.14846 0.03386,-2.93949 -0.08864,-2.72705 -0.191994,-2.50942 -0.276634,-2.28875 z m -87.172537,-209.74309 -0.04628,-0.1853 -0.111301,-0.38495 -0.196322,-0.58284 -0.296998,-0.76853 -0.416813,-0.94812 -0.548801,-1.12072 -0.700793,-1.28025 -0.864525,-1.43066 -1.041294,-1.5671 -1.235892,-1.69094 -1.439179,-1.80168 -1.655072,-1.89634 -1.883564,-1.97489 -2.118137,-2.03864 -2.36661,-2.08147 -2.616812,-2.1104 -2.879181,-2.12103 -1.538569,-1.05759 -0.793647,-0.52617 -0.200698,-0.13165 -0.04963,-0.033 -0.01295,-0.009 -0.0074,-0.003 -0.0052,-0.003 -19.643246,8.23549 -0.0013,0.005 -8.21e-4,0.007 -0.0035,0.0165 -0.01295,0.0592 -0.04547,0.23543 -0.181012,0.93473 -0.325067,1.83942 -0.506256,3.53903 -0.330218,3.34527 -0.172898,3.14845 -0.03169,2.93906 0.08864,2.72705 0.191992,2.50942 0.27446,2.28919 0.340386,2.06548 0.386306,1.843557 0.413515,1.618584 0.423317,1.397117 0.413104,1.177408 0.385498,0.961193 0.340928,0.750651 0.275476,0.548829 0.196983,0.34963 0.100662,0.163067 15.578921,22.98976 a 83.605806,83.605806 0 0 1 30.291546,-12.968386 z m 6.165673,190.833814 a 83.605806,83.605806 0 0 1 -30.40894,-12.546692 l -15.419233,23.174737 -0.09819,0.164552 -0.194164,0.351295 -0.271862,0.5502 -0.332588,0.754748 -0.378516,0.965374 -0.403117,1.180762 -0.411183,1.39962 -0.400104,1.623684 -0.369443,1.843806 -0.323989,2.07001 -0.254608,2.29141 -0.169999,2.50975 -0.06494,2.7285 0.05663,2.93941 0.199972,3.14594 0.357218,3.3429 0.536217,3.53547 0.341484,1.83446 0.187943,0.93526 0.04934,0.23448 0.01179,0.0587 0.0031,0.0152 0.0013,0.007 0.0035,0.006 19.712977,8.0681 0.0038,-0.003 0.0083,-0.004 0.01164,-0.009 0.05001,-0.0327 0.199584,-0.13288 0.790936,-0.53458 1.527489,-1.06954 2.861356,-2.14543 2.599447,-2.13126 2.34712,-2.10318 2.100903,-2.05598 1.867321,-1.99093 1.638972,-1.91111 1.423256,-1.81344 1.221914,-1.70058 1.027543,-1.57552 0.85146,-1.43831 0.689308,-1.28806 0.541091,-1.12477 0.408548,-0.95104 0.290369,-0.77342 0.193082,-0.58189 0.107983,-0.38602 0.0442,-0.18539 z m -53.61426,-128.0241 -23.174738,-15.419233 -0.162383,-0.09862 -0.353469,-0.193727 -0.550199,-0.271862 -0.752574,-0.333026 -0.965374,-0.378515 -1.182938,-0.40268 -1.39962,-0.411183 -1.621508,-0.40054 -1.846418,-0.371182 -2.06958,-0.321814 -2.28923,-0.255044 -2.51236,-0.171738 -2.7285,-0.06494 -2.93897,0.05882 -3.14377,0.199534 -3.34507,0.357656 -3.5333,0.53578 -1.83663,0.341921 -0.93309,0.187506 -0.23665,0.04978 -0.0587,0.01179 -0.0152,0.0031 -0.007,0.0013 -0.006,0.0035 -8.0681,19.712977 0.004,0.0061 0.003,0.0061 0.007,0.01208 0.0349,0.04957 0.13288,0.199583 0.53458,0.790937 1.06998,1.529664 2.14499,2.859182 2.13126,2.599447 2.10319,2.34712 2.05641,2.103077 1.9905,1.865146 1.9111,1.638971 1.81345,1.423258 1.70057,1.221913 1.57596,1.02972 1.43831,0.851458 1.28545,0.68757 1.12694,0.540655 0.95104,0.408548 0.77342,0.290367 0.58145,0.190907 0.38646,0.110165 0.18539,0.0442 27.241765,5.231394 a 83.605806,83.605806 0 0 1 12.54736,-30.406749 z m 0.343391,92.898941 A 83.605806,83.605806 0 0 1 -81.96489,16.472915 l -26.97924,5.42151 -0.1853,0.04629 -0.38495,0.111301 -0.58067,0.195887 -0.77027,0.29961 -0.94855,0.414637 -1.12028,0.550976 -1.2807,0.698618 -1.43065,0.864525 -1.56667,1.04347 -1.69137,1.233717 -1.80168,1.439179 -1.89591,1.657246 -1.97532,1.88139 -2.0382,2.120312 -2.08191,2.364434 -2.10996,2.618987 -2.12148,2.877007 -1.05759,1.538569 -0.52617,0.793647 -0.13165,0.200698 -0.0326,0.0518 -0.009,0.01295 -0.003,0.0052 -0.003,0.0052 8.23548,19.643247 0.005,0.0013 0.007,0.0029 0.0161,0.0012 0.0592,0.01295 0.23587,0.04765 0.93474,0.181012 1.83898,0.322895 3.53903,0.506254 3.34527,0.330218 3.14845,0.172898 2.93906,0.03169 2.72705,-0.08864 2.50986,-0.189817 2.28875,-0.276635 2.06548,-0.340386 1.843556,-0.386305 1.618586,-0.413516 1.397115,-0.423316 1.177408,-0.413105 0.961193,-0.385498 0.753264,-0.339189 0.546217,-0.277215 0.34963,-0.196983 0.163506,-0.09848 z" /><path
     style="fill:#7b1fa2;fill-opacity:1;stroke:#000000;stroke-width:2.5;stroke-dasharray:none;stroke-opacity:1"
     id="path4222"
     d="m -40.926456,222.31187 c -5.112742,2.86668 -17.740724,19.22315 -23.561314,19.91506 -5.820589,0.6919 -21.93114,-12.24835 -27.573445,-13.83655 -5.642305,-1.58821 -26.137405,1.04823 -30.742435,-2.57829 -4.60503,-3.62653 -6.84677,-24.16855 -9.71346,-29.28129 -2.86668,-5.11275 -19.22315,-17.74073 -19.91506,-23.56132 -0.6919,-5.82059 12.24835,-21.93114 13.83656,-27.57344 1.5882,-5.64231 -1.04824,-26.13741 2.57829,-30.74244 3.62652,-4.60503 24.16854,-6.84677 29.28129,-9.71345 5.11274,-2.86668 17.74072,-19.223156 23.561309,-19.915063 5.820589,-0.691907 21.931141,12.248347 27.573445,13.836551 5.642305,1.588202 26.137409,-1.048235 30.742439,2.578292 4.605031,3.62652 6.846769,24.16855 9.713451,29.28129 2.866682,5.11274 19.2231532,17.74072 19.9150604,23.56131 0.6919072,5.82059 -12.2483463,21.93114 -13.8365506,27.57345 -1.5882048,5.6423 1.0482351,26.13741 -2.5782908,30.74244 -3.626526,4.60503 -24.168547,6.84676 -29.281289,9.71345 z"
     transform="matrix(0.20356364,0.75970984,-0.75970984,0.20356364,139.33741,22.782147)" /><g
     aria-label="e"
     id="text3055"
     style="font-size:388.131px;font-family:Moonbeam;-inkscape-font-specification:Moonbeam;display:inline;fill:#69f0ae;stroke:#000000;stroke-width:3.63872"><path
       d="m -29.692221,67.728972 q 13.972716,7.76262 31.0504805,7.76262 30.2742185,0 52.0095555,-21.735337 Q 63.847352,42.500456 68.116794,32.020919 72.774366,21.541381 74.715021,3.6873548 L 89.85213,5.2398788 Q 87.523344,24.646429 82.08951,38.231015 76.655676,51.8156 64.235483,64.623924 51.815291,77.432247 35.90192,84.030474 20.376679,90.628701 2.9107835,90.628701 q -26.0047775,0 -50.0689005,-14.748978 Q -66.952799,63.0714 -78.596729,42.500456 -89.852528,21.541381 -89.852528,-0.97021735 q 0,-23.28786065 12.420192,-44.24693565 12.420192,-21.347205 33.379267,-33.379267 21.347206,-12.032061 44.63506644,-12.032061 24.06412256,0 43.47067356,13.196454 l 5.821965,3.493179 z M -64.624013,-38.230794 q -10.091406,17.077764 -10.091406,37.26057665 0,17.46589535 8.150751,33.37926735 8.150752,15.52524 24.064123,26.392908 L 29.691823,-68.893144 Q 16.8835,-75.491372 0.97012845,-75.491372 q -19.79468145,0 -37.64870845,10.091407 -17.854026,9.703275 -27.945433,27.169171 z"
       id="path292" /></g></svg>
